<svg width="26" height="18" viewBox="0 0 26 18" fill="none" xmlns="http://www.w3.org/2000/svg">
<path d="M2.5 0.75C1.90326 0.75 1.33097 0.987053 0.90901 1.40901C0.487053 1.83097 0.25 2.40326 0.25 3V6C0.25 6.59674 0.487053 7.16903 0.90901 7.59099C1.33097 8.01295 1.90326 8.25 2.5 8.25H5.5C6.09674 8.25 6.66903 8.01295 7.09099 7.59099C7.51295 7.16903 7.75 6.59674 7.75 6V3C7.75 2.40326 7.51295 1.83097 7.09099 1.40901C6.66903 0.987053 6.09674 0.75 5.5 0.75H2.5ZM2.5 9.75C1.90326 9.75 1.33097 9.98705 0.90901 10.409C0.487053 10.831 0.25 11.4033 0.25 12V15C0.25 15.5967 0.487053 16.169 0.90901 16.591C1.33097 17.0129 1.90326 17.25 2.5 17.25H5.5C6.09674 17.25 6.66903 17.0129 7.09099 16.591C7.51295 16.169 7.75 15.5967 7.75 15V12C7.75 11.4033 7.51295 10.831 7.09099 10.409C6.66903 9.98705 6.09674 9.75 5.5 9.75H2.5ZM9.25 3C9.25 2.40326 9.48705 1.83097 9.90901 1.40901C10.331 0.987053 10.9033 0.75 11.5 0.75H14.5C15.0967 0.75 15.669 0.987053 16.091 1.40901C16.5129 1.83097 16.75 2.40326 16.75 3V6C16.75 6.59674 16.5129 7.16903 16.091 7.59099C15.669 8.01295 15.0967 8.25 14.5 8.25H11.5C10.9033 8.25 10.331 8.01295 9.90901 7.59099C9.48705 7.16903 9.25 6.59674 9.25 6V3ZM11.5 9.75C10.9033 9.75 10.331 9.98705 9.90901 10.409C9.48705 10.831 9.25 11.4033 9.25 12V15C9.25 15.5967 9.48705 16.169 9.90901 16.591C10.331 17.0129 10.9033 17.25 11.5 17.25H14.5C15.0967 17.25 15.669 17.0129 16.091 16.591C16.5129 16.169 16.75 15.5967 16.75 15V12C16.75 11.4033 16.5129 10.831 16.091 10.409C15.669 9.98705 15.0967 9.75 14.5 9.75H11.5Z" fill="#5DDA04"/>
<path d="M20.5 0.75C19.9033 0.75 19.331 0.987053 18.909 1.40901C18.4871 1.83097 18.25 2.40326 18.25 3V6C18.25 6.59674 18.4871 7.16903 18.909 7.59099C19.331 8.01295 19.9033 8.25 20.5 8.25H23.5C24.0967 8.25 24.669 8.01295 25.091 7.59099C25.5129 7.16903 25.75 6.59674 25.75 6V3C25.75 2.40326 25.5129 1.83097 25.091 1.40901C24.669 0.987053 24.0967 0.75 23.5 0.75H20.5ZM20.5 9.75C19.9033 9.75 19.331 9.98705 18.909 10.409C18.4871 10.831 18.25 11.4033 18.25 12V15C18.25 15.5967 18.4871 16.169 18.909 16.591C19.331 17.0129 19.9033 17.25 20.5 17.25H23.5C24.0967 17.25 24.669 17.0129 25.091 16.591C25.5129 16.169 25.75 15.5967 25.75 15V12C25.75 11.4033 25.5129 10.831 25.091 10.409C24.669 9.98705 24.0967 9.75 23.5 9.75H20.5Z" fill="#5DDA04"/>
</svg>
