<svg width="16" height="16" viewBox="0 0 16 16" fill="none" xmlns="http://www.w3.org/2000/svg">
<path d="M14.2101 2.04978C14.6292 1.52598 14.2562 0.75 13.5854 0.75H2.41459C1.74377 0.75 1.37084 1.52598 1.78992 2.04978L5.312 6.452C5.59574 6.80682 5.75021 7.24768 5.75 7.702V14.25C5.75 14.5152 5.85536 14.7696 6.04289 14.9571C6.23043 15.1446 6.48478 15.25 6.75 15.25H9.25C9.51522 15.25 9.76957 15.1446 9.95711 14.9571C10.1446 14.7696 10.25 14.5152 10.25 14.25V7.702C10.2498 7.24768 10.4043 6.80682 10.688 6.452L14.2101 2.04978Z" stroke="#5DDA04" stroke-width="1.5" stroke-linecap="round" stroke-linejoin="round"/>
</svg>
