<svg width="18" height="18" viewBox="0 0 18 18" fill="none" xmlns="http://www.w3.org/2000/svg">
<path d="M3 0.75C2.40326 0.75 1.83097 0.987053 1.40901 1.40901C0.987053 1.83097 0.75 2.40326 0.75 3V6C0.75 6.59674 0.987053 7.16903 1.40901 7.59099C1.83097 8.01295 2.40326 8.25 3 8.25H6C6.59674 8.25 7.16903 8.01295 7.59099 7.59099C8.01295 7.16903 8.25 6.59674 8.25 6V3C8.25 2.40326 8.01295 1.83097 7.59099 1.40901C7.16903 0.987053 6.59674 0.75 6 0.75H3ZM2.25 3C2.25 2.80109 2.32902 2.61032 2.46967 2.46967C2.61032 2.32902 2.80109 2.25 3 2.25H6C6.19891 2.25 6.38968 2.32902 6.53033 2.46967C6.67098 2.61032 6.75 2.80109 6.75 3V6C6.75 6.19891 6.67098 6.38968 6.53033 6.53033C6.38968 6.67098 6.19891 6.75 6 6.75H3C2.80109 6.75 2.61032 6.67098 2.46967 6.53033C2.32902 6.38968 2.25 6.19891 2.25 6V3ZM3 9.75C2.40326 9.75 1.83097 9.98705 1.40901 10.409C0.987053 10.831 0.75 11.4033 0.75 12V15C0.75 15.5967 0.987053 16.169 1.40901 16.591C1.83097 17.0129 2.40326 17.25 3 17.25H6C6.59674 17.25 7.16903 17.0129 7.59099 16.591C8.01295 16.169 8.25 15.5967 8.25 15V12C8.25 11.4033 8.01295 10.831 7.59099 10.409C7.16903 9.98705 6.59674 9.75 6 9.75H3ZM2.25 12C2.25 11.8011 2.32902 11.6103 2.46967 11.4697C2.61032 11.329 2.80109 11.25 3 11.25H6C6.19891 11.25 6.38968 11.329 6.53033 11.4697C6.67098 11.6103 6.75 11.8011 6.75 12V15C6.75 15.1989 6.67098 15.3897 6.53033 15.5303C6.38968 15.671 6.19891 15.75 6 15.75H3C2.80109 15.75 2.61032 15.671 2.46967 15.5303C2.32902 15.3897 2.25 15.1989 2.25 15V12ZM9.75 3C9.75 2.40326 9.98705 1.83097 10.409 1.40901C10.831 0.987053 11.4033 0.75 12 0.75H15C15.5967 0.75 16.169 0.987053 16.591 1.40901C17.0129 1.83097 17.25 2.40326 17.25 3V6C17.25 6.59674 17.0129 7.16903 16.591 7.59099C16.169 8.01295 15.5967 8.25 15 8.25H12C11.4033 8.25 10.831 8.01295 10.409 7.59099C9.98705 7.16903 9.75 6.59674 9.75 6V3ZM12 2.25C11.8011 2.25 11.6103 2.32902 11.4697 2.46967C11.329 2.61032 11.25 2.80109 11.25 3V6C11.25 6.19891 11.329 6.38968 11.4697 6.53033C11.6103 6.67098 11.8011 6.75 12 6.75H15C15.1989 6.75 15.3897 6.67098 15.5303 6.53033C15.671 6.38968 15.75 6.19891 15.75 6V3C15.75 2.80109 15.671 2.61032 15.5303 2.46967C15.3897 2.32902 15.1989 2.25 15 2.25H12ZM12 9.75C11.4033 9.75 10.831 9.98705 10.409 10.409C9.98705 10.831 9.75 11.4033 9.75 12V15C9.75 15.5967 9.98705 16.169 10.409 16.591C10.831 17.0129 11.4033 17.25 12 17.25H15C15.5967 17.25 16.169 17.0129 16.591 16.591C17.0129 16.169 17.25 15.5967 17.25 15V12C17.25 11.4033 17.0129 10.831 16.591 10.409C16.169 9.98705 15.5967 9.75 15 9.75H12ZM11.25 12C11.25 11.8011 11.329 11.6103 11.4697 11.4697C11.6103 11.329 11.8011 11.25 12 11.25H15C15.1989 11.25 15.3897 11.329 15.5303 11.4697C15.671 11.6103 15.75 11.8011 15.75 12V15C15.75 15.1989 15.671 15.3897 15.5303 15.5303C15.3897 15.671 15.1989 15.75 15 15.75H12C11.8011 15.75 11.6103 15.671 11.4697 15.5303C11.329 15.3897 11.25 15.1989 11.25 15V12Z" fill="#5DDA04"/>
</svg>
