<svg width="13" height="14" viewBox="0 0 13 14" fill="none" xmlns="http://www.w3.org/2000/svg">
<path d="M2.39961 0.400009C1.92222 0.400009 1.46438 0.589651 1.12682 0.927217C0.789252 1.26478 0.599609 1.72262 0.599609 2.20001V4.60001C0.599609 5.0774 0.789252 5.53524 1.12682 5.8728C1.46438 6.21037 1.92222 6.40001 2.39961 6.40001H11.1996C11.677 6.40001 12.1348 6.21037 12.4724 5.8728C12.81 5.53524 12.9996 5.0774 12.9996 4.60001V2.20001C12.9996 1.72262 12.81 1.26478 12.4724 0.927217C12.1348 0.589651 11.677 0.400009 11.1996 0.400009H2.39961ZM2.39961 7.60001C1.92222 7.60001 1.46438 7.78965 1.12682 8.12722C0.789252 8.46478 0.599609 8.92262 0.599609 9.40001V11.8C0.599609 12.2774 0.789252 12.7352 1.12682 13.0728C1.46438 13.4104 1.92222 13.6 2.39961 13.6H11.1996C11.677 13.6 12.1348 13.4104 12.4724 13.0728C12.81 12.7352 12.9996 12.2774 12.9996 11.8V9.40001C12.9996 8.92262 12.81 8.46478 12.4724 8.12722C12.1348 7.78965 11.677 7.60001 11.1996 7.60001H2.39961Z" fill="#5DDA04"/>
</svg>
