<svg width="20" height="20" viewBox="0 0 20 20" fill="none" xmlns="http://www.w3.org/2000/svg">
<path d="M15.1724 16.3362C14.8981 16.3362 14.6349 16.4452 14.4409 16.6392C14.2469 16.8332 14.1379 17.0963 14.1379 17.3707C14.1379 17.645 14.2469 17.9082 14.4409 18.1022C14.6349 18.2962 14.8981 18.4052 15.1724 18.4052C15.4468 18.4052 15.7099 18.2962 15.9039 18.1022C16.0979 17.9082 16.2069 17.645 16.2069 17.3707C16.2069 17.0963 16.0979 16.8332 15.9039 16.6392C15.7099 16.4452 15.4468 16.3362 15.1724 16.3362Z" fill="#5DDA04"/>
<path d="M7.93097 16.3362C7.65661 16.3362 7.39348 16.4452 7.19948 16.6392C7.00547 16.8332 6.89648 17.0963 6.89648 17.3707C6.89648 17.645 7.00547 17.9082 7.19948 18.1022C7.39348 18.2962 7.65661 18.4052 7.93097 18.4052C8.20533 18.4052 8.46845 18.2962 8.66246 18.1022C8.85646 17.9082 8.96545 17.645 8.96545 17.3707C8.96545 17.0963 8.85646 16.8332 8.66246 16.6392C8.46845 16.4452 8.20533 16.3362 7.93097 16.3362Z" fill="#5DDA04"/>
<path d="M15.8066 12.9307L17.5 5.73279H11.5517H5.63538L7.52345 12.9866C7.64029 13.4278 7.89975 13.818 8.26142 14.0964C8.6231 14.3748 9.06668 14.5258 9.5231 14.5259H13.7924C14.2588 14.5259 14.7115 14.3684 15.0771 14.0788C15.4427 13.7893 15.6998 13.3847 15.8066 12.9307Z" fill="#5DDA04"/>
<path d="M2.5 2.62933H4.82759L7.52345 12.9866C7.64029 13.4278 7.89975 13.818 8.26142 14.0964C8.6231 14.3748 9.06668 14.5258 9.5231 14.5259H13.7924C14.2588 14.5259 14.7115 14.3684 15.0771 14.0788C15.4427 13.7893 15.6998 13.3847 15.8066 12.9307L17.5 5.73279H11.5517H5.63538" stroke="#5DDA04" stroke-width="1.55173" stroke-linecap="round" stroke-linejoin="round"/>
</svg>
