<svg width="20" height="18" viewBox="0 0 20 18" fill="none" xmlns="http://www.w3.org/2000/svg">
<path d="M19.0625 9C19.0625 10.25 16.875 16.8125 10 16.8125C3.125 16.8125 0.9375 10.25 0.9375 9C0.9375 7.75 3.125 1.1875 10 1.1875C16.875 1.1875 19.0625 7.75 19.0625 9Z" stroke="white" stroke-width="1.875" stroke-linecap="round" stroke-linejoin="round"/>
<path d="M10 6.1875C9.25408 6.1875 8.53871 6.48382 8.01126 7.01126C7.48382 7.53871 7.1875 8.25408 7.1875 9C7.1875 9.74592 7.48382 10.4613 8.01126 10.9887C8.53871 11.5162 9.25408 11.8125 10 11.8125C10.7459 11.8125 11.4613 11.5162 11.9887 10.9887C12.5162 10.4613 12.8125 9.74592 12.8125 9C12.8125 8.25408 12.5162 7.53871 11.9887 7.01126C11.4613 6.48382 10.7459 6.1875 10 6.1875Z" stroke="white" stroke-width="1.875" stroke-linecap="round" stroke-linejoin="round"/>
</svg>
