<svg width="10" height="10" viewBox="0 0 18 18" fill="none" xmlns="http://www.w3.org/2000/svg">
<path d="M4.875 7.5L7.125 9.75L10.125 4.5" stroke="white" stroke-width="0.75" stroke-linecap="round"/>
<path fill-rule="evenodd" clip-rule="evenodd" d="M7.5 0.78125C6.91375 0.78125 6.35437 0.973125 5.45187 1.28188L4.9975 1.43813C4.07187 1.75438 3.35687 1.99937 2.84562 2.20687C2.58812 2.31125 2.36625 2.41313 2.18812 2.51625C2.01625 2.61625 1.84437 2.74063 1.7275 2.9075C1.61187 3.07188 1.55188 3.27437 1.51438 3.47C1.475 3.6725 1.45188 3.91562 1.43625 4.195C1.40625 4.74875 1.40625 5.50875 1.40625 6.49375V7.49438C1.40625 11.3075 4.28625 13.1356 5.99875 13.8844L6.01562 13.8912C6.22813 13.9844 6.42813 14.0712 6.6575 14.13C6.89938 14.1925 7.15688 14.2188 7.5 14.2188C7.84375 14.2188 8.1 14.1925 8.3425 14.13C8.57187 14.0712 8.77187 13.9844 8.98375 13.8912L9.00125 13.8844C10.7137 13.1356 13.5938 11.3075 13.5938 7.49438V6.49375C13.5938 5.50875 13.5938 4.74875 13.5637 4.19438C13.5537 3.95125 13.5276 3.70906 13.4856 3.46938C13.4481 3.27437 13.3881 3.07188 13.2731 2.90688C13.1556 2.74063 12.9838 2.61625 12.8119 2.51625C12.6 2.39833 12.3803 2.29497 12.1544 2.20687C11.6431 1.99937 10.9281 1.75438 10.0025 1.43813L9.54813 1.28188C8.64563 0.973125 8.08563 0.78125 7.5 0.78125ZM5.675 2.19625C6.68437 1.85125 7.08875 1.71875 7.5 1.71875C7.91125 1.71875 8.31563 1.85125 9.325 2.19625L9.6825 2.31875C10.6281 2.6425 11.3175 2.87875 11.8013 3.075C12.0431 3.17375 12.2181 3.25625 12.3413 3.3275C12.4019 3.3625 12.4438 3.39125 12.4713 3.41437C12.495 3.43312 12.5044 3.44438 12.5056 3.44563C12.5138 3.46034 12.5205 3.47584 12.5256 3.49187C12.5381 3.52688 12.5519 3.57687 12.565 3.64687C12.5988 3.84489 12.6197 4.0449 12.6275 4.24563C12.6562 4.77125 12.6562 5.505 12.6562 6.51062V7.49438C12.6562 10.7288 10.2375 12.3212 8.62562 13.025C8.39375 13.1263 8.25938 13.1838 8.11 13.2219C7.9675 13.2587 7.79375 13.2812 7.5 13.2812C7.20625 13.2812 7.0325 13.2587 6.89 13.2219C6.74 13.1844 6.60625 13.1263 6.37438 13.025C4.76188 12.3206 2.34375 10.7288 2.34375 7.49438V6.51062C2.34375 5.505 2.34375 4.77125 2.3725 4.24563C2.38031 4.0449 2.40119 3.84489 2.435 3.64687C2.44812 3.57687 2.46188 3.52688 2.47438 3.49187C2.48563 3.46062 2.49312 3.44813 2.49437 3.44563C2.5048 3.43413 2.51631 3.42366 2.52875 3.41437C2.56968 3.38179 2.61315 3.35253 2.65875 3.32687C2.78188 3.25563 2.95687 3.17375 3.19875 3.07562C3.6825 2.87875 4.37188 2.6425 5.3175 2.31938L5.67563 2.19625H5.675Z" fill="white"/>
</svg>
