<svg width="31" height="30" viewBox="0 0 31 30" fill="none" xmlns="http://www.w3.org/2000/svg">
<rect x="0.5" width="30" height="30" rx="15" fill="white"/>
<path d="M6.43747 9.6875C6.43747 9.02446 6.70086 8.38857 7.1697 7.91973C7.63854 7.45089 8.27443 7.1875 8.93747 7.1875H22.0625C22.7255 7.1875 23.3614 7.45089 23.8302 7.91973C24.2991 8.38857 24.5625 9.02446 24.5625 9.6875V20.3125C24.5625 20.9755 24.2991 21.6114 23.8302 22.0803C23.3614 22.5491 22.7255 22.8125 22.0625 22.8125H8.93747C8.27443 22.8125 7.63854 22.5491 7.1697 22.0803C6.70086 21.6114 6.43747 20.9755 6.43747 20.3125V9.6875Z" fill="#333333" stroke="#333333" stroke-width="1.25" stroke-linecap="round" stroke-linejoin="round"/>
<path d="M7.37497 8.125L15.5 15.3125L23.625 8.125" stroke="white" stroke-width="1.25" stroke-linecap="round" stroke-linejoin="round"/>
</svg>
