<svg width="30" height="30" viewBox="0 0 30 30" fill="none" xmlns="http://www.w3.org/2000/svg">
<g clip-path="url(#clip0_1_2)">
<path fill-rule="evenodd" clip-rule="evenodd" d="M12.4495 11.5816C9.64589 13.2002 13.9235 21.2196 16.9914 19.4484C17.5362 20.392 19.291 23.4315 19.8358 24.375C18.5414 25.1224 17.4458 25.5935 15.9452 24.7356C11.7786 22.3538 7.19203 14.4131 7.32277 9.67643C7.36809 8.03133 8.33732 7.38677 9.60512 6.65482C10.1499 7.59843 11.9047 10.638 12.4495 11.5816Z" fill="
#ffffff"/>
<path fill-rule="evenodd" clip-rule="evenodd" d="M13.6251 11.4478C13.3222 11.6227 12.9324 11.5183 12.7575 11.2153L10.0759 6.57075C9.90102 6.26776 10.0054 5.87796 10.3084 5.70305L11.7177 4.88936C12.0207 4.71443 12.4106 4.81891 12.5855 5.12186L15.267 9.7664C15.4419 10.0693 15.3375 10.4591 15.0345 10.634L13.6251 11.4478Z" fill="
#ffffff"/>
<path fill-rule="evenodd" clip-rule="evenodd" d="M20.9509 24.1361C20.648 24.311 20.2582 24.2066 20.0833 23.9036L17.4017 19.259C17.2268 18.9561 17.3312 18.5662 17.6341 18.3914L19.0435 17.5777C19.3464 17.4028 19.7363 17.5073 19.9112 17.8102L22.5928 22.4547C22.7677 22.7577 22.6632 23.1475 22.3603 23.3224L20.9509 24.1361Z" fill="
#ffffff"/>
<path d="M14.9999 0L15.0001 0.00349353C19.1437 0.00355705 22.8936 1.68154 25.6058 4.39401C28.3181 7.10632 29.996 10.856 29.9961 14.9997H29.9996V15.0004H29.9961C29.9961 19.144 28.3181 22.8939 25.6056 25.6061C22.8932 28.3184 19.1436 29.9963 14.9999 29.9964V29.9999H14.9992V29.9964C10.8556 29.9964 7.10571 28.3184 4.39355 25.6059C1.68124 22.8935 0.0032913 19.1439 0.00318836 15.0002H-0.000305176V14.9995H0.00318836C0.00325187 10.8559 1.68124 7.10601 4.3937 4.39385C7.10602 1.68154 10.8557 0.00359648 14.9994 0.00349353L14.9999 0ZM15.0001 1.78913V1.79262H14.9994V1.78913C11.3554 1.78922 8.0535 3.26916 5.66151 5.6613C3.26915 8.0536 1.78918 11.3559 1.78918 14.9997H1.79267V15.0004H1.78918C1.78927 18.6443 3.26921 21.9463 5.66135 24.3383C8.05365 26.7306 11.3559 28.2106 14.9997 28.2106V28.2071H15.0004V28.2106C18.6444 28.2105 21.9463 26.7306 24.3383 24.3384C26.7307 21.9461 28.2106 18.6439 28.2106 15H28.2071V14.9993H28.2106C28.2105 11.3554 26.7306 8.05345 24.3385 5.66146C21.9462 3.26911 18.6439 1.78913 15.0001 1.78913Z" fill="
#ffffff"/>
</g>
<defs>
<clipPath id="clip0_1_2">
<rect width="30" height="30" fill="
#ffffff"/>
</clipPath>
</defs>
</svg>
