<svg width="30" height="30" viewBox="0 0 30 30" fill="none" xmlns="http://www.w3.org/2000/svg">
<g filter="url(#filter0_b_320_1547)">
<path d="M9.6875 9.6875H24.0625L22.0163 18.385C21.8872 18.9336 21.5766 19.4224 21.1348 19.7723C20.6931 20.1222 20.146 20.3125 19.5825 20.3125H14.4237C13.8722 20.3124 13.3362 20.1299 12.8992 19.7935C12.4622 19.4571 12.1487 18.9856 12.0075 18.4525L9.6875 9.6875ZM9.6875 9.6875L8.75 5.9375H5.9375" stroke="white" stroke-width="1.875" stroke-linecap="round" stroke-linejoin="round"/>
<path d="M12.5 22.5C12.1685 22.5 11.8505 22.6317 11.6161 22.8661C11.3817 23.1005 11.25 23.4185 11.25 23.75C11.25 24.0815 11.3817 24.3995 11.6161 24.6339C11.8505 24.8683 12.1685 25 12.5 25C12.8315 25 13.1495 24.8683 13.3839 24.6339C13.6183 24.3995 13.75 24.0815 13.75 23.75C13.75 23.4185 13.6183 23.1005 13.3839 22.8661C13.1495 22.6317 12.8315 22.5 12.5 22.5Z" fill="white"/>
<path d="M21.25 22.5C20.9185 22.5 20.6005 22.6317 20.3661 22.8661C20.1317 23.1005 20 23.4185 20 23.75C20 24.0815 20.1317 24.3995 20.3661 24.6339C20.6005 24.8683 20.9185 25 21.25 25C21.5815 25 21.8995 24.8683 22.1339 24.6339C22.3683 24.3995 22.5 24.0815 22.5 23.75C22.5 23.4185 22.3683 23.1005 22.1339 22.8661C21.8995 22.6317 21.5815 22.5 21.25 22.5Z" fill="white"/>
</g>
<defs>
<filter id="filter0_b_320_1547" x="-6" y="-6" width="42" height="42" filterUnits="userSpaceOnUse" color-interpolation-filters="sRGB">
<feFlood flood-opacity="0" result="BackgroundImageFix"/>
<feGaussianBlur in="BackgroundImageFix" stdDeviation="3"/>
<feComposite in2="SourceAlpha" operator="in" result="effect1_backgroundBlur_320_1547"/>
<feBlend mode="normal" in="SourceGraphic" in2="effect1_backgroundBlur_320_1547" result="shape"/>
</filter>
</defs>
</svg>
